<svg width="28" height="28" viewBox="0 0 28 28" fill="none" xmlns="http://www.w3.org/2000/svg">
<path d="M23.3847 14.8755C23.4331 19.1129 27.95 20.5229 28 20.5409C27.9618 20.6403 27.2783 22.5503 25.6203 24.5232C24.187 26.229 22.6995 27.9284 20.3562 27.9636C18.0537 27.9981 17.3133 26.8518 14.6808 26.8518C12.0492 26.8518 11.2266 27.9284 9.04697 27.9981C6.78508 28.0679 5.06262 26.1537 3.61751 24.4542C0.664485 20.9779 -1.59224 14.6311 1.43797 10.3469C2.94331 8.21929 5.63348 6.87202 8.55341 6.83747C10.7745 6.80297 12.8709 8.0542 14.2288 8.0542C15.5858 8.0542 18.1334 6.54949 20.8116 6.77048C21.9328 6.80847 25.0801 7.13925 27.101 9.5479C26.9382 9.6301 23.3457 11.333 23.3847 14.8755ZM19.0574 4.47062C20.2583 3.28704 21.0665 1.6394 20.846 0C19.1151 0.0566465 17.022 0.939191 15.7804 2.12212C14.6677 3.16965 13.6933 4.8463 13.9562 6.45325C15.8855 6.57479 17.8565 5.65495 19.0574 4.47062Z" fill="#322F33"/>
</svg>
