<svg width="28" height="28" viewBox="0 0 28 28" fill="none" xmlns="http://www.w3.org/2000/svg">
<path d="M14.0351 0.000102149C10.7054 -0.0127847 7.48053 1.19403 4.94068 3.40343C2.40082 5.61282 0.71272 8.67975 0.180085 12.0524C-0.35255 15.4251 0.30525 18.8821 2.03514 21.8015C3.76502 24.7209 6.45343 26.911 9.61668 27.9778C10.3158 28.0926 10.5395 27.6478 10.5395 27.2604V24.8357C6.66641 25.6965 5.84145 22.9561 5.84145 22.9561C5.58032 22.0651 5.01425 21.3008 4.24747 20.804C2.97507 19.9145 4.34534 19.9432 4.34534 19.9432C4.78425 20.0014 5.20464 20.1607 5.57509 20.4092C5.94555 20.6576 6.25648 20.9888 6.48464 21.3779C6.87303 22.0866 7.51838 22.6092 8.28033 22.8322C9.04228 23.0552 9.85921 22.9605 10.5535 22.5688C10.6172 21.8414 10.9292 21.1605 11.4344 20.6462C8.44216 20.3305 5.11437 19.0967 5.11437 13.6303C5.07393 12.1976 5.57494 10.8044 6.5126 9.74207C6.08689 8.50737 6.13691 7.15244 6.65242 5.95433C6.65242 5.95433 7.82694 5.56694 10.4976 7.38908C12.7873 6.75747 15.199 6.75747 17.4887 7.38908C20.1593 5.53825 21.3339 5.95433 21.3339 5.95433C21.8494 7.15244 21.8994 8.50737 21.4737 9.74207C22.4113 10.8044 22.9124 12.1976 22.8719 13.6303C22.8719 19.111 19.6001 20.3162 16.482 20.6749C16.8178 21.0213 17.0776 21.4373 17.244 21.895C17.4104 22.3528 17.4795 22.8418 17.4468 23.3292V27.2604C17.4468 27.6478 17.6705 28.1069 18.3836 27.9778C21.5411 26.9129 24.2256 24.7287 25.9559 21.8168C27.6861 18.9049 28.3489 15.4558 27.8255 12.0879C27.302 8.72003 25.6265 5.65361 23.0994 3.43847C20.5722 1.22334 17.3587 0.00435681 14.0351 0.000102149Z" fill="#322F33"/>
</svg>
