<svg width="28" height="28" viewBox="0 0 28 28" fill="none" xmlns="http://www.w3.org/2000/svg">
<path d="M28 14.3111C28 13.16 27.9047 12.32 27.6984 11.4489H14.2857V16.6444H22.1587C22 17.9355 21.1429 19.88 19.2381 21.1866L19.2114 21.3605L23.4522 24.5802L23.746 24.6089C26.4444 22.1666 28 18.5733 28 14.3111Z" fill="#322F33"/>
<path d="M14.2857 28C18.1428 28 21.3809 26.7555 23.746 24.6089L19.2381 21.1866C18.0317 22.011 16.4126 22.5866 14.2857 22.5866C10.508 22.5866 7.30164 20.1444 6.15867 16.7689L5.99114 16.7828L1.58144 20.1273L1.52377 20.2844C3.87296 24.8577 8.69836 28 14.2857 28Z" fill="#322F33"/>
<path d="M6.15867 16.7689C5.85709 15.8978 5.68255 14.9644 5.68255 14C5.68255 13.0355 5.85709 12.1022 6.1428 11.2311L6.13481 11.0456L1.66986 7.6474L1.52377 7.71549C0.555562 9.6133 0 11.7444 0 14C0 16.2555 0.555562 18.3866 1.52377 20.2844L6.15867 16.7689Z" fill="#322F33"/>
<path d="M14.2857 5.4133C16.9682 5.4133 18.7777 6.54885 19.8095 7.4978L23.8412 3.64C21.3651 1.38445 18.1428 0 14.2857 0C8.69836 0 3.87295 3.1422 1.52377 7.71549L6.1428 11.2311C7.30164 7.85555 10.508 5.4133 14.2857 5.4133Z" fill="#322F33"/>
</svg>
