<svg width="40" height="40" viewBox="0 0 40 40" fill="none" xmlns="http://www.w3.org/2000/svg">
<path d="M25.5331 20.8155L24.9174 19.8106C24.5189 20.0518 24.3001 20.5028 24.3586 20.9628C24.4168 21.4226 24.7415 21.8056 25.1879 21.9409L25.5331 20.8155ZM14.4668 20.8155L14.8121 21.9409C15.2584 21.8056 15.5831 21.4226 15.6416 20.9628C15.6998 20.5028 15.481 20.0518 15.0824 19.8106L14.4668 20.8155ZM29.4725 11.7647C29.4725 15.1717 27.6512 18.1572 24.9174 19.8106L26.1489 21.8205C29.5589 19.7579 31.8406 16.0266 31.8406 11.7647H29.4725ZM20.0001 2.35294C25.2314 2.35294 29.4725 6.56673 29.4725 11.7647H31.8406C31.8406 5.26725 26.5394 0 20.0001 0V2.35294ZM10.5276 11.7647C10.5276 6.56673 14.7685 2.35294 20.0001 2.35294V0C13.4607 0 8.15946 5.26725 8.15946 11.7647H10.5276ZM15.0824 19.8106C12.3488 18.1572 10.5276 15.1718 10.5276 11.7647H8.15946C8.15946 16.0266 10.441 19.7579 13.8511 21.8205L15.0824 19.8106ZM14.1214 19.6901C6.64594 21.9551 1.01632 28.4245 0.0261683 36.3299L2.37613 36.6205C3.24901 29.6513 8.21594 23.9393 14.8121 21.9409L14.1214 19.6901ZM0.0261683 36.3299C-0.235531 38.4193 1.50649 40 3.42326 40V37.6471C2.72431 37.6471 2.3148 37.1104 2.37613 36.6205L0.0261683 36.3299ZM3.42326 40H36.5768V37.6471H3.42326V40ZM36.5768 40C38.4935 40 40.2355 38.4193 39.9738 36.3299L37.6237 36.6205C37.6851 37.1104 37.2756 37.6471 36.5768 37.6471V40ZM39.9738 36.3299C38.9837 28.4245 33.354 21.9551 25.8784 19.6901L25.1879 21.9409C31.784 23.9393 36.7509 29.6513 37.6237 36.6205L39.9738 36.3299Z" fill="#74F4E8"/>
</svg>
