<svg width="18" height="18" viewBox="0 0 18 18" fill="none" xmlns="http://www.w3.org/2000/svg">
<path fill-rule="evenodd" clip-rule="evenodd" d="M1.5 0.75C1.5 0.335786 1.16421 0 0.75 0C0.335786 0 0 0.335786 0 0.75V17.25C0 17.6642 0.335786 18 0.75 18C1.16421 18 1.5 17.6642 1.5 17.25V16.5H16.5V17.25C16.5 17.6642 16.8358 18 17.25 18C17.6642 18 18 17.6642 18 17.25V0.75C18 0.335786 17.6642 0 17.25 0C16.8358 0 16.5 0.335786 16.5 0.75V6H15V2.25C15 1.83579 14.6642 1.5 14.25 1.5H8.25C7.83577 1.5 7.5 1.83579 7.5 2.25V3H3.75C3.33579 3 3 3.33579 3 3.75V6H1.5V0.75ZM7.5 4.5H4.5V6H7.5V4.5ZM1.5 7.5V15H3V9.75C3 9.33578 3.33579 9 3.75 9H9.75C10.1642 9 10.5 9.33578 10.5 9.75V10.5H14.25C14.6642 10.5 15 10.8358 15 11.25V15H16.5V7.5H1.5ZM13.5 6V3H9V6H13.5ZM9 15H4.5V10.5H9V15ZM10.5 15V12H13.5V15H10.5Z" fill="#322F33"/>
</svg>
