<svg width="20" height="20" viewBox="0 0 20 20" fill="none" xmlns="http://www.w3.org/2000/svg">
<path d="M15 10.932H19V16.983C19 18.097 18.1046 19 17 19M15 10.932V16.983C15 18.097 15.8954 19 17 19M15 10.932V3.62749C15 2.7144 15 2.25785 14.8098 1.9931C14.6439 1.76215 14.3888 1.61284 14.1076 1.58214C13.7853 1.54696 13.3923 1.77347 12.6062 2.22649L12.2938 2.40649C12.0045 2.57323 11.8598 2.65661 11.7062 2.68926C11.5702 2.71814 11.4298 2.71814 11.2938 2.68926C11.1402 2.65661 10.9955 2.57323 10.7062 2.40649L8.7938 1.30442C8.5045 1.13769 8.3598 1.05432 8.2062 1.02167C8.0702 0.992777 7.92978 0.992777 7.79383 1.02167C7.64019 1.05432 7.49552 1.13769 7.20618 1.30443L5.29382 2.40649C5.00448 2.57324 4.85981 2.65661 4.70617 2.68926C4.57022 2.71814 4.42978 2.71814 4.29383 2.68926C4.14019 2.65661 3.99552 2.57324 3.70618 2.40649L3.39382 2.22649C2.60772 1.77347 2.21467 1.54696 1.89237 1.58214C1.61123 1.61284 1.35611 1.76215 1.1902 1.9931C1 2.25785 1 2.7144 1 3.62749V14.1592C1 15.8536 1 16.7008 1.32698 17.3481C1.6146 17.9173 2.07354 18.3802 2.63803 18.6702C3.27976 19 4.11984 19 5.8 19H17M10 8.41074C9.5 8.28568 8.6851 8.28104 8 8.28568C7.77091 8.2872 7.90941 8.27741 7.6 8.28568C6.79258 8.3111 6.00165 8.64955 6 9.60833C5.99825 10.6297 7 10.932 8 10.932C9 10.932 10 11.1652 10 12.2556C10 13.0752 9.1925 13.4343 8.1861 13.5532C7.3861 13.5532 7 13.5793 6 13.4532M8 13.9575V14.966M8 6.89796V7.90647" stroke="#322F33" stroke-width="1.25" stroke-linecap="round" stroke-linejoin="round"/>
</svg>
